<?xml version="1.0" encoding="utf-8"?>
<!-- Generator: Adobe Illustrator 26.5.0, SVG Export Plug-In . SVG Version: 6.00 Build 0)  -->
<svg version="1.1" id="Layer_1" xmlns="http://www.w3.org/2000/svg" xmlns:xlink="http://www.w3.org/1999/xlink" x="0px" y="0px"
	 viewBox="0 0 48 48" style="enable-background:new 0 0 48 48;" xml:space="preserve">
<style type="text/css">
	.st0{fill:#FFFFFF;}
</style>
<path class="st0" d="M24,4C12.9,4,4,12.9,4,24s8.9,20,20,20s20-9,20-20S35,4,24,4z M24,10c3.3,0,6,2.7,6,6c0,3.3-2.7,6-6,6
	s-6-2.7-6-6C18,12.7,20.7,10,24,10z M24,38.4c-5,0-9.4-2.6-12-6.4c0.1-4,8-6.2,12-6.2S35.9,28,36,32C33.4,35.8,29,38.4,24,38.4z"/>
</svg>
